# xmcd
#
# Track frame offsets: 
#        150
#        12144
#        25897
#        41672
#        61153
#        76033
#        94136
#        118442
#        125613
#        145032
#        164141
#        180564
#
# Disc length: 2666 seconds
#
# Revision: 0
# Processed by: cddbd v1.5.1PL0 Copyright (c) Steve Scherf et al.
# Submitted via: ExactAudioCopy v0.95a5
#
DISCID=9d0a680c
DTITLE=Saul Williams - Saul Williams
DYEAR=2004
DGENRE=Hip-Hop
TTITLE0=Talk to Strangers
TTITLE1=Grippo
TTITLE2=Telegram
TTITLE3=Act III Scene 2 (Shakespeare)
TTITLE4=List of Demands (Reparations)
TTITLE5=African Student Movement
TTITLE6=Black Stacey
TTITLE7=PG
TTITLE8=Surrender (A Second to Think)
TTITLE9=Control Freak
TTITLE10=Seaweed
TTITLE11=Notice of Eviction
EXTD=
EXTT0=
EXTT1=
EXTT2=
EXTT3=
EXTT4=
EXTT5=
EXTT6=
EXTT7=
EXTT8=
EXTT9=
EXTT10=
EXTT11=
PLAYORDER=
